<?xml version="1.0" encoding="UTF-8"?>
<svg width="2200px" height="1500px" viewBox="0 0 2200 1500" xmlns="http://www.w3.org/2000/svg" xmlns:xlink="http://www.w3.org/1999/xlink" version="1.1">
 <!-- Generated by Pixelmator Pro 2.0 -->
 <path id="Path" d="M100 200 L2100 200" fill="#929292" fill-opacity="1" stroke="#929292" stroke-width="5" stroke-opacity="1" stroke-linejoin="round"/>
 <path id="Path-1" d="M950 200 L950 100" fill="#929292" fill-opacity="1" stroke="#929292" stroke-width="5" stroke-opacity="1" stroke-linejoin="round"/>
 <path id="Path-2" d="M1250 100 L950 100" fill="#929292" fill-opacity="1" stroke="#929292" stroke-width="5" stroke-opacity="1" stroke-linejoin="round"/>
 <path id="Path-3" d="M1250 200 L1250 100" fill="#929292" fill-opacity="1" stroke="#929292" stroke-width="5" stroke-opacity="1" stroke-linejoin="round"/>
 <g id="New-Group-copy-1">
  <path id="Path-4" d="M2099 400 L2098 200" fill="#ed230d" fill-opacity="1" stroke="#ed230d" stroke-width="5" stroke-opacity="1" stroke-linejoin="round"/>
  <path id="Path-5" d="M2099 800 L2099 400" fill="none" stroke="#f9e231" stroke-width="5" stroke-opacity="1" stroke-linejoin="round"/>
  <path id="Path-6" d="M2101 700 L2098 700" fill="none" stroke="#ed230d" stroke-width="5" stroke-opacity="1" stroke-linejoin="round"/>
 </g>
 <path id="Path-7" d="M98 2100 L102 800" fill="none" stroke="#1eb100" stroke-width="5" stroke-opacity="1" stroke-linejoin="round"/>
 <path id="Path-8" d="M2101 2117 L2099 800" fill="none" stroke="#1eb100" stroke-width="5" stroke-opacity="1" stroke-linejoin="round"/>
 <path id="Path-9" d="M102 400 L2100 400" fill="none" stroke="#929292" stroke-width="5" stroke-opacity="1" stroke-linejoin="round"/>
 <path id="Path-10" d="M104 800 L2099 800" fill="none" stroke="#929292" stroke-width="5" stroke-opacity="1" stroke-linejoin="round"/>
 <path id="Path-11" d="M104 700 L2097 700" fill="none" stroke="#929292" stroke-width="5" stroke-opacity="1" stroke-linejoin="round"/>
 <g id="New-Group-copy-2">
  <path id="Path-12" d="M102 400 L101 200" fill="#ed230d" fill-opacity="1" stroke="#ed230d" stroke-width="5" stroke-opacity="1" stroke-linejoin="round"/>
  <path id="Path-13" d="M102 800 L102 400" fill="none" stroke="#f9e231" stroke-width="5" stroke-opacity="1" stroke-linejoin="round"/>
  <path id="Path-14" d="M104 700 L101 700" fill="none" stroke="#ed230d" stroke-width="5" stroke-opacity="1" stroke-linejoin="round"/>
 </g>
</svg>
