<?xml version="1.0" encoding="UTF-8"?>
<svg width="2200px" height="2900px" viewBox="0 0 2200 2900" xmlns="http://www.w3.org/2000/svg" xmlns:xlink="http://www.w3.org/1999/xlink" version="1.1">
 <!-- Generated by Pixelmator Pro 2.0 -->
 <path id="Path" d="M100 200 L2100 200" fill="#929292" fill-opacity="1" stroke="#929292" stroke-width="5" stroke-opacity="1" stroke-linejoin="round"/>
 <path id="Path-1" d="M950 200 L950 100" fill="#929292" fill-opacity="1" stroke="#929292" stroke-width="5" stroke-opacity="1" stroke-linejoin="round"/>
 <path id="Path-2" d="M1250 100 L950 100" fill="#929292" fill-opacity="1" stroke="#929292" stroke-width="5" stroke-opacity="1" stroke-linejoin="round"/>
 <path id="Path-3" d="M1250 200 L1250 100" fill="#929292" fill-opacity="1" stroke="#929292" stroke-width="5" stroke-opacity="1" stroke-linejoin="round"/>
 <path id="Path-4" d="M1250 2700 L1250 2800" fill="#929292" fill-opacity="1" stroke="#929292" stroke-width="5" stroke-opacity="1" stroke-linejoin="round"/>
 <path id="Path-5" d="M950 2800 L1250 2800" fill="#929292" fill-opacity="1" stroke="#929292" stroke-width="5" stroke-opacity="1" stroke-linejoin="round"/>
 <path id="Path-6" d="M950 2700 L950 2800" fill="#929292" fill-opacity="1" stroke="#929292" stroke-width="5" stroke-opacity="1" stroke-linejoin="round"/>
 <path id="Path-copy" d="M101 2700 L2101 2700" fill="#ed230d" fill-opacity="1" stroke="#929292" stroke-width="5" stroke-opacity="1" stroke-linejoin="round"/>
 <g id="New-Group">
  <path id="Path-7" d="M98 2500 L99 2700" fill="#ed230d" fill-opacity="1" stroke="#ed230d" stroke-width="5" stroke-opacity="1" stroke-linejoin="round"/>
  <path id="Path-8" d="M98 2100 L98 2500" fill="none" stroke="#f9e231" stroke-width="5" stroke-opacity="1" stroke-linejoin="round"/>
  <path id="Path-9" d="M96 2200 L99 2200" fill="none" stroke="#ed230d" stroke-width="5" stroke-opacity="1" stroke-linejoin="round"/>
 </g>
 <g id="New-Group-copy">
  <path id="Path-10" d="M2101 2500 L2102 2700" fill="#ed230d" fill-opacity="1" stroke="#ed230d" stroke-width="5" stroke-opacity="1" stroke-linejoin="round"/>
  <path id="Path-11" d="M2101 2100 L2101 2500" fill="none" stroke="#f9e231" stroke-width="5" stroke-opacity="1" stroke-linejoin="round"/>
  <path id="Path-12" d="M2099 2200 L2102 2200" fill="none" stroke="#ed230d" stroke-width="5" stroke-opacity="1" stroke-linejoin="round"/>
 </g>
 <g id="New-Group-copy-1">
  <path id="Path-13" d="M2099 400 L2098 200" fill="#ed230d" fill-opacity="1" stroke="#ed230d" stroke-width="5" stroke-opacity="1" stroke-linejoin="round"/>
  <path id="Path-14" d="M2099 800 L2099 400" fill="none" stroke="#f9e231" stroke-width="5" stroke-opacity="1" stroke-linejoin="round"/>
  <path id="Path-15" d="M2101 700 L2098 700" fill="none" stroke="#ed230d" stroke-width="5" stroke-opacity="1" stroke-linejoin="round"/>
 </g>
 <path id="Path-16" d="M98 2100 L102 800" fill="none" stroke="#1eb100" stroke-width="5" stroke-opacity="1" stroke-linejoin="round"/>
 <path id="Path-17" d="M2101 2100 L2099 800" fill="none" stroke="#1eb100" stroke-width="5" stroke-opacity="1" stroke-linejoin="round"/>
 <path id="Path-18" d="M102 400 L2097 400" fill="none" stroke="#929292" stroke-width="5" stroke-opacity="1" stroke-linejoin="round"/>
 <path id="Path-19" d="M104 800 L2099 800" fill="none" stroke="#929292" stroke-width="5" stroke-opacity="1" stroke-linejoin="round"/>
 <path id="Path-20" d="M104 700 L2094 700" fill="none" stroke="#929292" stroke-width="5" stroke-opacity="1" stroke-linejoin="round"/>
 <path id="Path-21" d="M104 2100 L2101 2100" fill="none" stroke="#929292" stroke-width="5" stroke-opacity="1" stroke-linejoin="round"/>
 <path id="Path-22" d="M98 2500 L2101 2500" fill="none" stroke="#929292" stroke-width="5" stroke-opacity="1" stroke-linejoin="round"/>
 <path id="Path-23" d="M104 2200 L2098 2200" fill="none" stroke="#929292" stroke-width="5" stroke-opacity="1" stroke-linejoin="round"/>
 <g id="New-Group-copy-2">
  <path id="Path-24" d="M102 400 L101 200" fill="#ed230d" fill-opacity="1" stroke="#ed230d" stroke-width="5" stroke-opacity="1" stroke-linejoin="round"/>
  <path id="Path-25" d="M102 800 L102 400" fill="none" stroke="#f9e231" stroke-width="5" stroke-opacity="1" stroke-linejoin="round"/>
  <path id="Path-26" d="M104 700 L101 700" fill="none" stroke="#ed230d" stroke-width="5" stroke-opacity="1" stroke-linejoin="round"/>
 </g>
</svg>
